<?xml version="1.0" standalone="no"?>
<!DOCTYPE svg PUBLIC "-//W3C//DTD SVG 20010904//EN"
 "http://www.w3.org/TR/2001/REC-SVG-20010904/DTD/svg10.dtd">
<svg version="1.0" xmlns="http://www.w3.org/2000/svg"
 width="300.000000pt" height="300.000000pt" viewBox="0 0 300.000000 300.000000"
 preserveAspectRatio="xMidYMid meet">
<metadata>
Created by potrace 1.14, written by Peter Selinger 2001-2017
</metadata>
<g transform="translate(0.000000,300.000000) scale(0.100000,-0.100000)"
fill="#000000" stroke="none">
<path d="M1370 2734 c-204 -38 -286 -62 -415 -126 -343 -169 -587 -478 -670
-848 -26 -115 -31 -346 -11 -466 81 -475 432 -869 891 -1000 163 -47 386 -59
461 -25 83 38 123 108 124 214 0 60 -5 77 -41 146 -46 89 -54 154 -25 209 32
63 53 68 284 75 236 7 313 22 434 83 103 52 222 172 271 274 62 126 72 182 71
380 0 206 -15 272 -93 434 -154 322 -450 542 -846 631 -68 16 -381 29 -435 19z
m470 -208 c122 -34 275 -109 376 -184 214 -159 327 -353 354 -606 26 -240 -37
-422 -187 -537 -112 -86 -209 -109 -459 -109 -211 0 -246 -10 -329 -93 -75
-76 -105 -153 -105 -263 0 -84 13 -127 51 -172 38 -43 45 -76 25 -106 -23 -35
-44 -39 -166 -26 -258 25 -462 123 -649 310 -186 186 -288 401 -310 650 -29
346 82 641 328 872 136 128 285 215 446 259 128 35 161 38 350 34 157 -2 192
-6 275 -29z"/>
<path d="M1125 2239 c-97 -28 -130 -166 -59 -240 103 -108 291 3 245 144 -15
43 -58 85 -102 97 -39 11 -43 11 -84 -1z"/>
<path d="M1796 2240 c-106 -32 -136 -174 -52 -248 59 -52 141 -50 198 5 79 76
44 213 -63 243 -39 11 -44 11 -83 0z"/>
<path d="M742 1710 c-19 -4 -47 -20 -63 -36 -79 -76 -56 -201 46 -239 101 -39
195 27 195 137 0 94 -85 159 -178 138z"/>
<path d="M2208 1708 c-49 -13 -94 -65 -103 -117 -10 -61 23 -123 79 -150 50
-25 75 -26 119 -7 69 29 105 102 85 174 -21 79 -98 121 -180 100z"/>
</g>
</svg>
